<svg id="ID02" xmlns="http://www.w3.org/2000/svg" viewBox="0 0 370 89"><defs><style>.cls-1{fill:#ffe41b;}.cls-2{fill:#4a8e06;}</style></defs><title>id02</title><path class="cls-1" d="M361.78,0H107.54A65.51,65.51,0,0,0,62.08,18.26L2.48,75.16A8.06,8.06,0,0,0,8.21,89H262.46a65.51,65.51,0,0,0,45.46-18.26l59.6-56.9A8.06,8.06,0,0,0,361.78,0Z"/><path class="cls-2" d="M351.46,23,302.3,70.08a56.21,56.21,0,0,1-39.1,15.77H21.16a7,7,0,0,1-4.93-12L65.38,26.8A56.21,56.21,0,0,1,104.48,11H346.53A7,7,0,0,1,351.46,23Z"/></svg>