<svg id="ID01" xmlns="http://www.w3.org/2000/svg" viewBox="0 0 369 651"><defs><style>.cls-1{fill:#6bb54f;}.cls-2{fill:#fffc6a;}</style></defs><title>id01</title><path class="cls-1" d="M288.35,651H1S.94,324.59,0,93C.4,82.06-.2,77.55,12,66L62.08,18.26A65.51,65.51,0,0,1,107.54,0H360.78a8.11,8.11,0,0,1,8.14,7.07c-.1,25.25,0,397.42.07,567.93C369,647.32,332.22,651,288.35,651Z"/><path class="cls-2" d="M352.58,22.06a7,7,0,0,0-7.05-7H104.48A56.21,56.21,0,0,0,65.38,30.8L23,71c-8.71,7.53-9,24.21-9,26V644H286.34c57.38,0,66.66-23.79,66.66-79.41V22Z"/></svg>